<?xml version="1.0" standalone="no"?><!DOCTYPE svg PUBLIC "-//W3C//DTD SVG 1.1//EN" "http://www.w3.org/Graphics/SVG/1.1/DTD/svg11.dtd"><svg t="1489284189121" class="icon" style="" viewBox="0 0 1024 1024" version="1.1" xmlns="http://www.w3.org/2000/svg" p-id="2659" xmlns:xlink="http://www.w3.org/1999/xlink" width="200" height="200"><defs><style type="text/css">svg{fill:#fff;}</style></defs><path d="M861.596701 760.832252 706.508507 760.832252 511.999488 955.341271 317.490469 760.832252 162.401252 760.832252c-38.624692 0-69.919443-31.295773-69.919443-69.919443L92.481809 131.557268c0-38.613436 31.29475-69.919443 69.919443-69.919443L861.596701 61.637826c38.623669 0 69.919443 31.306007 69.919443 69.919443l0 559.355541C931.516144 729.536478 900.220371 760.832252 861.596701 760.832252zM861.596701 166.515455c0-19.300578-15.659655-34.958186-34.960233-34.958186L197.361485 131.557268c-19.323091 0-34.960233 15.657608-34.960233 34.958186l0 489.437122c0 19.300578 15.636119 34.960233 34.960233 34.960233l134.103254 0 180.534749 171.910325 180.533726-171.910325 134.103254 0c19.300578 0 34.960233-15.659655 34.960233-34.960233L861.596701 166.515455z" p-id="2660"></path><path d="M302.240137 341.314573c38.623669 0 69.919443 31.30703 69.919443 69.919443s-31.295773 69.919443-69.919443 69.919443c-38.624692 0-69.919443-31.30703-69.919443-69.919443S263.616468 341.314573 302.240137 341.314573z" p-id="2661"></path><path d="M511.999488 341.314573c38.623669 0 69.918419 31.30703 69.918419 69.919443s-31.29475 69.919443-69.918419 69.919443c-38.625716 0-69.919443-31.30703-69.919443-69.919443S473.373773 341.314573 511.999488 341.314573z" p-id="2662"></path><path d="M721.756793 341.314573c38.623669 0 69.919443 31.30703 69.919443 69.919443s-31.295773 69.919443-69.919443 69.919443c-38.624692 0-69.919443-31.30703-69.919443-69.919443S683.1321 341.314573 721.756793 341.314573z" p-id="2663"></path><path d="M511.999488 341.314573c38.623669 0 69.918419 31.30703 69.918419 69.919443s-31.29475 69.919443-69.918419 69.919443c-38.625716 0-69.919443-31.30703-69.919443-69.919443S473.373773 341.314573 511.999488 341.314573z" p-id="2664"></path></svg>