<?xml version="1.0" standalone="no"?><!DOCTYPE svg PUBLIC "-//W3C//DTD SVG 1.1//EN" "http://www.w3.org/Graphics/SVG/1.1/DTD/svg11.dtd"><svg t="1489284218567" class="icon" style="" viewBox="0 0 1024 1024" version="1.1" xmlns="http://www.w3.org/2000/svg" p-id="3314" xmlns:xlink="http://www.w3.org/1999/xlink" width="200" height="200"><defs><style type="text/css">svg { fill: #fff; }</style></defs><path d="M840.787 409.371 631.021 409.371c81.271-300.918-56.01-316.294-56.01-316.294-58.206 0-46.126 46.126-50.518 53.814 0 147.164-155.951 262.48-155.951 262.48l0 417.334c0 41.184 56.01 56.01 77.975 56.01l315.197 0c29.653 0 53.813-77.976 53.813-77.976 77.976-265.774 77.976-344.848 77.976-344.848C893.503 404.979 840.787 409.371 840.787 409.371z" p-id="3315"></path><path d="M282.467 409.509 156.855 409.509c-25.946 0-26.358 25.534-26.358 25.534l25.946 420.902c0 26.77 26.77 26.77 26.77 26.77l108.726 0c22.651 0 22.445-17.709 22.445-17.709L314.384 441.427C314.384 409.097 282.467 409.509 282.467 409.509z" p-id="3316"></path></svg>